<svg xmlns="http://www.w3.org/2000/svg" viewBox="0 0 1993 527.65"><g id="b511ea29-6deb-4739-8d17-8eefa545c054" data-name="Layer 2"><g id="a4e2afb5-7636-4391-94eb-d235558d00e6" data-name="Layer 1"><path d="M1330.2,526.25c-4.8-1.6-11.8-6.1-12.5-8.1-.3-.7.7-2.5,2.2-3.9l2.7-2.6,2.5,2.6c3.7,4,7.3,5.4,13.4,5.4,6.6,0,10.6-1.8,12.3-5.5,3.1-6.7-.7-12.6-9.6-15.1-10.3-2.8-13.8-4.4-17.1-7.8-7.7-7.9-4.8-20.8,5.6-25.2,7.6-3.3,21.9-.9,26.5,4.3,1.7,1.9,1.7,2-.6,4.2l-2.4,2.3-4.5-2.6c-8.9-5.3-20.7-2.1-20.7,5.6,0,6.2,1.9,7.7,14.1,11.3,4.3,1.2,9.5,3.5,11.5,5,9.5,7.2,8.2,22-2.4,28.2-5.3,3.1-14.7,4-21,1.9Z" style="fill:#c4a161"/><path d="M1400.7,526a31.32,31.32,0,0,1-8.9-5.3l-4.1-3.6,3.1-2.3,3.2-2.2,4.1,3.3c3.6,2.9,4.9,3.3,11.5,3.6,7.1.4,7.5.3,10.4-2.6,2.2-2.3,3-4,3-6.7,0-6.9-2.7-9.1-14.4-12.1-7.6-1.9-13.8-5.9-16.2-10.5-2.1-4.1-1.4-12,1.3-15.7,6.5-9,26.2-9.7,33.7-1.3,1.1,1.1,1.7,2.2,1.5,2.4s-1.4,1.1-2.6,2.1c-2.1,1.8-2.3,1.8-5.5-.5-2.3-1.7-5-2.4-9.5-2.7-5.8-.4-6.4-.2-9.3,2.6-3.2,3.2-3.7,5.6-1.9,9.5,1.4,3.1,3,4,13.1,7.1,13,3.9,18,9.2,18,18.7,0,13.4-14.9,21.4-30.5,16.2Z" style="fill:#c4a161"/><path d="M1647.3,525.75c-5-1.7-12.3-6.4-12.3-8,0-.4,1.1-1.7,2.3-3l2.4-2.2,5.3,3.6c4.5,3,6,3.5,11.2,3.5,7.4,0,11.3-1.9,12.8-6.4,2.2-6.8-1-11.4-10-14.1-15-4.5-19.1-7.4-21-14.5-3-11.2,5.5-20,19.3-20,7.4,0,10.7,1,15.5,4.7l3.4,2.5-2.8,2.9c-2.8,2.9-2.8,2.9-4.8,1-6.4-6-20.5-5.1-22.2,1.3-1.7,7.1,2.1,11.4,12.1,13.7,11.2,2.5,17.6,7.7,19.1,15.5,2.1,11.3-7.9,21.5-21,21.4A39.43,39.43,0,0,1,1647.3,525.75Z" style="fill:#c4a161"/><path d="M1728,526.75a34.2,34.2,0,0,1-20.4-18c-3-6.5-2.9-19.7.2-26.1,3.5-7.2,7.8-11.6,14.4-14.9,5-2.5,7.3-3.1,12.8-3.1,9.7,0,15.5,2.3,22.1,8.9,6.7,6.8,9.3,13.2,9.2,23.3-.1,17-14.4,31-31.2,30.7A32.39,32.39,0,0,1,1728,526.75Zm20.2-10.6c7.7-5.5,11.4-16.9,8.9-27.2-1.8-7.1-5.5-11.9-11.8-14.9-15.1-7.4-31.3,3.4-31.3,20.9,0,11.1,4.3,19.1,12.4,22.9,6.4,2.9,16.2,2.1,21.8-1.7Z" style="fill:#c4a161"/><path d="M747.7,525c-.5-.9-15.7-57.7-15.7-58.7,0-.3,2-.6,4.4-.6,3.7,0,4.5.3,4.9,2.3,4.6,19.9,11.2,46.6,11.5,46.3s8.1-27.5,12.3-42.9c1-3.7,1.1-3.8,5.1-3.5l4.1.3,6.1,22.2c3.3,12.2,6.4,22.4,6.7,22.8s2.8-8.3,5.4-19.2,5.1-21.7,5.7-24c1-4.2,1.1-4.3,5.3-4.3h4.3l-2.9,10.8c-1.6,5.9-5.2,19.4-8.1,30l-5.1,19.2h-9.2l-5.9-21.3c-3.2-11.6-6.2-21.6-6.6-22s-3.5,9.1-7,21.3l-6.3,22h-4.3c-2.3,0-4.5-.3-4.7-.7Z" style="fill:#c4a161"/><path d="M835,495.65v-30h8v60h-8Z" style="fill:#c4a161"/><path d="M876,495.65v-30h8v53h32v7H876Z" style="fill:#c4a161"/><path d="M944,495.55v-30.1l15.3.4c18.3.6,23,2,29.7,8.7,7.5,7.6,10,19.9,6.4,32.2-1.2,4.1-2.8,6.6-6.7,10.4-7.4,7.2-12.2,8.5-30.3,8.5H944Zm29.5,22c9.7-2.7,14.4-9.7,14.5-21.7,0-15.5-6.9-21.7-25.5-22.9l-9.5-.6v46.3h8.3A61.19,61.19,0,0,0,973.5,517.55Z" style="fill:#c4a161"/><path d="M1027,495.65v-30h38v7h-29v19h22v7h-22v20h31v7h-40Z" style="fill:#c4a161"/><path d="M1097,495.55v-30.1l13.3.4c14.9.4,19,1.7,23.4,7.5,3.1,4,4.1,11.3,2.4,16.6-1.1,3.4-6.3,8.9-9.2,9.9-.8.3.9,4.3,5.4,12.6,3.7,6.6,6.7,12.3,6.7,12.6s-1.9.6-4.2.6h-4.3l-6.3-12-6.3-12H1105v24h-8Zm25.6-2.4c7.8-3.2,8-14.9.4-18.7-2.4-1.2-5.9-1.8-10.7-1.8H1105v22h7C1115.9,494.65,1120.6,494.05,1122.6,493.15Z" style="fill:#c4a161"/><path d="M1169,495.65v-30h4.3l4.2.1,16.5,23.7,16.5,23.7.3-23.8.2-23.7h8v60h-8.5L1194,502l-16.5-23.6-.3,23.6-.2,23.7h-8v-30Z" style="fill:#c4a161"/><path d="M1252,495.65v-30h38v7h-30v19h22v7h-22v20h32v7h-40Z" style="fill:#c4a161"/><path d="M1498,495.55v-30.1l13.3.4c11.8.3,13.6.6,17.5,2.8,7.2,4.1,10.2,11.3,8.1,19.6a19.43,19.43,0,0,1-8.4,11.2c-2.2,1.3-2.9-.3,7.4,18.5l4.2,7.7h-9l-6.3-12-6.3-12H1506v24h-8v-30.1Zm26.7-2.9c6.5-4.2,5.4-16.4-1.8-18.9a41.33,41.33,0,0,0-10-1.1H1506V495l8.3-.5c4.5-.2,9.2-1.1,10.4-1.8Z" style="fill:#c4a161"/><path d="M1570,495.65v-30h37v7h-29v19h22v7h-22v20h32v7h-40Z" style="fill:#c4a161"/><path d="M1797,495.55v-30.1l13.3.4c11.9.3,13.7.6,17.7,2.8,5.2,2.9,9,9.3,9,15-.1,5.2-3.3,11.6-7.4,14.2-2,1.3-3.6,2.6-3.6,2.9s2.9,5.9,6.5,12.4,6.5,11.9,6.5,12.1-2,.4-4.5.4H1830l-6-12-6-12h-13v24h-8v-30.1Zm24.2-1.9a11.5,11.5,0,0,0,5.3-3.3c1.7-2.5,2-9.9.4-12.9s-7.1-4.8-14.9-4.8h-7v22h6.3a51.31,51.31,0,0,0,9.9-1Z" style="fill:#c4a161"/><path d="M1884,499.15v-26.5h-22v-7h52v7h-22v53h-8Z" style="fill:#c4a161"/><path d="M261.5,502.45c-1.6-.5-7.8-1-13.7-1.1s-10.4-.6-10.1-1-.5-.7-1.8-.6a6.14,6.14,0,0,1-3.5-.4c-.7-.4-6.8-1.8-13.7-3.2s-14.9-3.4-17.7-4.5a28.59,28.59,0,0,0-8.1-2c-2.7,0-19.7-6.5-20.9-8a23,23,0,0,0-4-2c-9.5-3.7-37.2-18.8-42.7-23.3-3.5-2.8-6.3-5.4-6.3-5.7s-3.4-4-7.6-8.1-8.2-8-8.8-8.8-4.2-4.5-8.1-8.3c-6.5-6.3-9.6-8.5-7.9-5.5,1.5,2.7-7.1-6.3-13.9-14.3-3.9-4.7-8.7-10.3-10.6-12.5s-2.6-3.1-1.3-2.1,2.5,1.7,2.7,1.4c.8-.8-4.5-6.9-5.5-6.3-.5.3-1.6-.5-2.4-1.7s-1.9-1.9-2.2-1.5c-.9.9,1.4,4.3,8.4,12.5,3.2,3.7,6.8,8.3,8.2,10.2l2.3,3.5-3.7-3.5a29.56,29.56,0,0,1-5.2-6.3c-.8-1.5-1.9-2.5-2.4-2.2s-1.5-.6-2-2a63.58,63.58,0,0,0-5.4-8.8c-4.9-6.9-7.8-12.2-7-12.9.2-.3-2.5-5.6-6.1-11.9s-6.5-11.8-6.5-12.4c0-.9,5.6,8.3,8.9,14.8.8,1.5,1.8,2.7,2.3,2.7.8,0-7.5-16.6-9.3-18.5a5.57,5.57,0,0,1-1-3c-.1-3.1-11.3-28.1-12.4-27.6-.6.2-2.2-3.4-3.8-8-2.5-7.6-2.7-7.3-1.2,1.6.4,2.1,0,1.7-1.1-1.4s-1.9-3.9-2.5-3c-.7,1.1-.9.9-1-.6-.2-4.2.3-8,1.2-8.3.6-.2.3-1.4-.5-2.6a21.58,21.58,0,0,1-2-7.2l-.5-4.9,1.1,4.8c1.1,5.3,3.4,6.6,2.4,1.5-.3-1.8-.7-4.7-.9-6.5-.2-2.6,0-3,1.2-2s1.3.8.8-1.3a28.62,28.62,0,0,1-.8-4.5c-.1-1.6-.2-1.5-.8.5s-.9,1.1-1.5-4c-.7-6-.9-6.3-2-4.1s-1.3,2.1-2-3c-.4-3-1-6.5-1.3-7.8s-.2-2.2.3-1.8,1-2.2,1.1-5.5c.3-6.4-.4-7.1-1.7-1.6-.7,3-.8,2.8-1-2.2-.2-4.7-.3-5.1-1-2.5-.5,1.9-.8-2.3-.9-10.8-.1-8.2.3-13.6.8-13.2s.9-3.2.9-8.4c0-8.2,1.3-14.8,3.6-17.9.5-.7,1-4.9,1.2-9.2.2-5.2.8-8.8,1.8-10.2a5.82,5.82,0,0,0,.9-4.6c-.4-1.9-.3-2.3.7-1.7s1.2.3.8-1.3c-.4-1.3-.2-2,.3-1.6s.8-.6.5-2-.1-2.4.5-2.1.9-.2.9-1.2a4.45,4.45,0,0,1,.9-2.8,41.73,41.73,0,0,0,3.1-8c1.3-3.8,3.6-10.1,5.2-13.9s2.5-7.3,2.1-7.9-.1-.7.7-.2c1,.6,1.2.4.7-.8a2,2,0,0,1,1.1-2.6c.9-.6,1.3-1.1.8-1.1s-.2-.8.6-1.7c2.1-2.5,16.8-31.2,16.8-32.9,0-1.4-2-2-2-.6a15.18,15.18,0,0,1-2.7,3.7l-2.6,3,2-3.3c2-3.4,15-20.3,19.2-25,3.5-4.1,8.5-10.5,9.7-12.7a10.75,10.75,0,0,1,4-3.5,10.59,10.59,0,0,0,3.9-3.6,21.21,21.21,0,0,1,8.5-8.8c3.4-1.8,3.4-1.8-.8,1.9-2.4,2-4.1,4-3.8,4.3s1.2-.1,2.1-.8c2-1.6,1.9-.3-.1,1.7-.8.9-1.3,2.2-1,2.9a1.71,1.71,0,0,1-.6,2c-.7.4-.8.3-.4-.4,1.9-3.1-1.6-.6-5.8,4.1-8.5,9.4-10.8,11.7-11.7,11.1-.5-.3-.6.3-.2,1.2.5,1.3.3,1.5-.8.9-.8-.4-1.1-.5-.7,0s-.4,2.3-1.9,4.1-2.3,3.4-1.9,3.4.1,1.2-.4,2.8l-1,2.7,2.5-3c1.3-1.6,2-3.2,1.5-3.5s.8-2.7,2.8-5.3c3.4-4.4,3.7-4.6,4.2-2.5.7,2.9,4,3.7,4,1a4.82,4.82,0,0,1,1.5-3.2A2.66,2.66,0,0,0,77.6,59a1.59,1.59,0,0,1,.9-2,2.09,2.09,0,0,0,1.3-2.2c-.2-1,.5-1.7,2-1.9,1.2-.2,2.2.1,2.2.7a1,1,0,0,1-1,1.1c-1.8,0-1,1.7,1.2,2.8l2.3,1.1H84.3c-1.2.1-3.8,2-6.2,4.7-4.7,5.3-5.5,8-1.4,4.3,2.2-1.9,2.4-2,1-.3s-1.5,2.3-.5,2.7.9.6-.2.6c-.8.1-2.7,1.5-4.2,3.3-2.3,2.7-2.8,3-2.8,1.4,0-1.3-1.6.3-4.5,4.5-2.5,3.5-4.3,7-4,7.7s-.6,3-2,5c-2.8,4.2-3.3,6.1-.9,4.1.9-.7-.1,1.7-2.1,5.4s-3.4,7.1-3,7.7.1,1-.5,1-.9.4-.6.9-.4,2.1-1.6,3.6c-2,2.6-2.2,2.7-3,.9-.7-1.5-.7-1.4-.4.5a8.76,8.76,0,0,1-1.5,5.7c-1.9,3.2-10.9,26-10.9,27.8a6,6,0,0,1-1.5,2.6c-.8.9-1.6,3.4-1.8,5.6s-1.3,8.4-2.5,13.9c-2.4,11.8-4.1,25.5-3,24.9.5-.3,1.3.7,1.8,2.1s1.4,2.3,2,2,1,1.9.9,6.2c0,4.5-.3,6.1-.8,4.8-.5-1.1-.7-2.3-.4-2.7s-.3-.8-1.1-.8c-1.2,0-1.6,1-1.5,4.3.1,3.7.2,3.9,1,1.7.6-1.7.7.7.5,7.1-.2,6.6,0,9.6.8,9.6s1-1.5.9-3.6c-.2-2.9-.1-3.2.6-1.6a14.79,14.79,0,0,1,1,5c.1,2.3.4,2.7,1.1,1.5.5-.8,1-1,1-.5,0,2.8,2.1,23.5,2.7,27,.6,3.7.7,3.8,1.4,1.5l.7-2.5.1,2.8c.1,1.5-.3,2.7-.9,2.7s-.8,1.2-.6,2.8.1,1.9-.1,1-.9-1.8-1.4-1.8c-1.2,0-1.2,5.7,0,6.2,1.5.5,3.1,8.6,1.9,9s1.3,10,2.9,10.5c.7.3,1-.4.7-1.9-.3-1.3,1.4,3.3,3.8,10.2s6.1,16.2,8.1,20.6,3.7,8.9,3.7,9.7,1.1,2.8,2.5,4.3,2.5,3,2.5,3.5a4.57,4.57,0,0,0,1.3,2.1,23.57,23.57,0,0,1,3.1,5.6c1.1,2.3,2.4,4.2,3,4.2,1.1,0,7.6,10,7.6,11.7,0,.5,1.2,2.2,2.7,3.9s2.3,2.3,1.7,1.5a47.7,47.7,0,0,1-3.1-5.6c-1-2.2-2.7-5.3-3.7-7s-1.2-2.3-.5-1.5a195.86,195.86,0,0,1,12.5,16.7c1.2,1.9,2.4,3.4,2.8,3.3s1.9,1.4,3.4,3.3a55.78,55.78,0,0,0,6.4,6.5c3.4,3.1,3.9,3.2,9.5,2.6,8-.9,12.3-2.8,12.3-5.3,0-1.8-.6-2.1-4-2.1-2.2,0-4-.5-4-1s-1.3-.4-3,.5c-3.7,1.9-3.8,1.9-3.6-.2s2.1-3.1,6.6-3.2c6.1-.2,8-1.1,8-3.8,0-2.3-.3-2.4-2.7-1.8-4,1.1-11.2.6-14.1-.9-2.4-1.3-2.4-1.3,2.2-2.5a28.56,28.56,0,0,1,9.7-.5c4.7.6,4.9.6,4.9-1.9,0-1.9-.5-2.5-2.2-2.5-7.5-.2-10.8-.6-10.8-1.2,0-.4,1.8-1.5,4-2.5s4.3-2.2,4.6-2.7-3.1-.6-7.6-.4c-8.1.5-11,.1-11-1.4,0-.5,1.3-1.1,3-1.5s3-1.1,3-1.6,2-.9,4.4-.9c4.3,0,10.9-2.1,12-3.9s-2.1-3-8.3-3.3c-3.4-.1-6.5-.6-6.7-1s-1.9-.8-3.5-.8q-3,0-2.7-1.2c.3-.8,3.2-1.5,7.6-1.9,8.1-.6,10.8-1.9,4.1-1.9-5.8,0-3.4-1.7,3.8-2.6,4.2-.5,5.3-1,5.3-2.4,0-1.2-1-2.1-3.1-2.5-2.8-.6-2.9-.8-1.2-2.1s.8-1.3-6.2-1.2a56.07,56.07,0,0,1-11.5-.8c-3.3-1-3.3-1.1-1.2-1.8,1.2-.4,5.3-.5,9-.1,4.9.5,6.3.3,5.2-.4-1.3-1-1.3-1.2,0-2,1-.7-.1-1.1-4-1.3-3.1-.2-5.5-.8-5.8-1.5-.3-1,1.8-1.3,8.2-1.3,8.7,0,11.3-1,7.6-3-1.7-.9-1.9-1.4-.9-2.6,1.6-1.9-1.4-4.3-5.3-4.4s-4.6-2-.6-2.1c3.6,0,8.4-1.7,5.8-1.9-.9-.1-.5-.6,1-1.2l2.5-1.1L117,297a23.17,23.17,0,0,1-4-1,21.42,21.42,0,0,0-4.8-.8,8.21,8.21,0,0,1-4.5-1.5c-1-1,.3-1.1,7.1-.7s8.2.4,8.2-.8a1.54,1.54,0,0,0-1.5-1.5c-.8,0-1.5-.5-1.5-1s-1-.8-2.2-.5a5.57,5.57,0,0,1-4.2-.8c-1.7-1.3-1.4-1.4,3.4-2,3-.4,5.8-1.2,6.4-1.8.8-.8-.2-.9-3.9-.5-5.6.6-11.5.9-13,.6-2.1-.3,9.2-3.8,12.8-3.9,5.1-.1,4.6-1.3-1.4-3.5a25.55,25.55,0,0,1-7.3-3.8l-2.1-1.9,2.8,1c4.3,1.7,5.2,1.3,3.1-1.1-1.9-2.1-1.9-2.1.1-1.4a38.41,38.41,0,0,0,5.9,1.3c3.5.4,3.8.3,2.7-1.1a5.24,5.24,0,0,0-3.6-1.6,6.4,6.4,0,0,1-4-2c-1.7-1.9-1.7-2-.1-2,2.2,0,4.9-2.7,4.1-4-.3-.5.1-1,1.1-1,1.2,0,1.4-.4.7-1.2-1.7-2.2-2.2-6.8-.7-6.8a5,5,0,0,0,2.7-1.5c1.3-1.3,1.8-1,4.2,2,1.4,1.9,2.3,4,2,4.6s.4,1.9,1.7,3.1,2.2,2.4,2,2.9.4.9,1.2.9c1.7,0,4.6,2.7,4.6,4.2,0,.6-1.1.8-2.5.6-1.7-.4-2.5-.1-2.5.8s-.9,1.2-3.2.8l-3.3-.5,3,2.5,3,2.6h-2.8c-1.6,0-2.6.4-2.2,1s2.6,1,5,1,4.7.5,5,1c.4.7-.3.8-2.1.4-2.1-.5-2.5-.4-1.9.6s-.1,1.2-3.3.6c-4.9-.7-5.7.8-1.4,2.6l2.7,1.2-2.7.4c-3.8.5-3.7,3.2,0,3.2,3.4,0,4.3.7,3.5,2.6-.4,1.1-1.4,1.3-3.7.9-2.8-.6-3-.6-1.6.9.9.9,4.1,1.9,7.8,2.2,7.9.9,7,2.4-1.4,2.4-3.5,0-6.4.4-6.4.9,0,.9,12.5,5.1,15.1,5.1.6,0,.2.9-1.1,2-2.9,2.5-4.6,2.5-9.5,0-4.3-2.2-5.4-2.1-3,.3,2.1,2.2,1.9,3.7-.6,3.7-1.4,0-1.9.5-1.7,1.6.3,1.8,1.6,2.7,6.3,4.6,2.8,1.1,2.8,1.2.7,1.6-1.3.2-1.9.8-1.6,1.4.5.8-.3.9-2.4.5-2.5-.5-3.2-.3-3.2.9a2.39,2.39,0,0,0,1.5,2c.8.4,1.2,1,.9,1.5s1.7.9,4.4.9c7.1,0,14.2,1.1,13.6,2.1-.3.5-1.8.9-3.4.9s-3,.6-3.3,1.3c-.3.9-1.3,1-4.5.1-4.6-1.2-9.2-.8-9.2.9a6.47,6.47,0,0,0,1.7,2.9c1.5,1.7,1.5,2,.3,2.8-2.6,1.6.5,3.3,7.6,4.2,4,.4,7.9,1.6,9.8,2.9,1.7,1.1,2.2,1.8,1.1,1.4-3.7-1.3-15.5-1.8-15.5-.6,0,.6-1.1,1.1-2.5,1.1-3.1,0-3.1.7-.4,3.7,1.8,1.8,2,2.5,1,3.7-1.7,2.1-.2,2.7,8.7,3.3,4.2.3,7.8.6,7.9.7s-.1.7-.6,1.4-3.7,1.3-8.3,1.4c-4.2.1-7.5.6-7.2,1s-.3,1.1-1.2,1.6c-1.3.7-1.4,1.7-.7,5.2.7,3.9,1.2,4.4,4.8,5.5,4.5,1.3,12.5,5.6,12.5,6.7,0,.4-1,.4-2.2,0a34.1,34.1,0,0,0-8.6-.4c-6.2.4-6.3.4-6,3,.2,2.2,1,2.8,3.8,3.3,4,.7,13,4.5,13,5.5,0,.3-1.8.4-4,.2-4.6-.4-5.3.6-1.2,1.7,2.7.7,2.7.7.5,1.8-1.7.7-3.4.6-6.6-.7a30.17,30.17,0,0,0-5-1.6c-.4,0-.7,3.2-.7,7.2s.3,6.8.7,6.5c.8-.8,4.3,2.2,4.3,3.6,0,.6-.8.3-1.8-.6-2.5-2.3-3.9-2.1-1.8.2,2.8,3,13.6,10.3,13.6,9.1,0-.6,1-.4,2.5.6s2.2,2.1,1.8,2.7,0,.8,1.1.4,1.5-.3,1.1.3.8,1.6,2.5,2.5,3,1.1,3,.6-.9-1.3-2.1-1.6-1.8-.9-1.5-1.2c.6-.6,8.6,3.8,8.6,4.8,0,.4.9,1.1,2,1.4s1.8,1.1,1.4,1.6,1.4,1.8,3.8,2.9,3.7,2,2.9,2c-1.1,0-.8.6.7,2,2.6,2.4,2.8,3.2.7,2.4-3.1-1.2-1.3.8,2,2.2,4.1,1.7,4.8,1.7,4,.4-.4-.6.5-.5,1.9.2s2.6,1.7,2.6,2.5,1.1,1.3,2.4,1.3,2.6.4,2.8.9c.5,1.6,5.4,2.4,5.7.9.2-.7.5-10.5.8-21.7l.5-20.4-2.9.7a18.28,18.28,0,0,0-5.8,3.5c-3.9,3.6-10.5,6.5-8.9,4,.4-.8-.3-.9-2.2-.5a18.62,18.62,0,0,1-6.2-.2l-3.4-.7,7.9-3.7c8.1-3.9,12-6.4,11.2-7.3-.3-.2-2.1,0-4,.5a21,21,0,0,1-12.9-.1c-4.4-1.6-2.5-2.5,7.9-3.8,11-1.4,16-3,17.8-5.8,2.7-4.1,1.1-5.6-5.2-4.8-4.6.5-5.5.4-5.5-.9,0-1.5-.3-1.5-3.7,0-2.1.9-4.4,1.8-5.2,2.1q-1.5.75-.6-1.5c.4-1.5.2-2.2-.7-2.2-3.8-.2,4.7-2.8,10.7-3.4,10.1-1,10.5-1.2,10.5-5.2,0-3.7-.5-3.9-4.7-2.3-3.2,1.3-16.5,1.2-17.3,0a6,6,0,0,0-2.7-1.5c-4-1.3-2.5-2.3,5.5-4,5.9-1.3,8.5-1.4,10.6-.6a22,22,0,0,0,5.7,1c2.7,0,2.9-.3,2.9-3.6,0-2.8-.4-3.5-1.7-3.3-3.5.5-17.3-1.3-17.3-2.2,0-.6,2.6-2.2,5.8-3.6,8.9-4.1,13.8-8.3,9.7-8.3a1.54,1.54,0,0,0-1.5,1.5c0,.8-1.2,1.7-2.7,2s-4.1,1-5.8,1.5c-2.3.8-3.2.7-4.1-.5-1.3-1.7-5.1-2-5.6-.4-.5,1.4-7.1,1.5-7.6.1a1.87,1.87,0,0,0-1.8-1.2c-2.7,0-.4-1.9,3.6-3.1,2.2-.7,3.7-1.5,3.5-1.9-.8-1.3,2.4-2,8.9-2,3.4,0,6.6-.4,7.1-.9a21,21,0,0,1,4.8-2.1c2.9-.9,3.7-1.7,3.7-3.6,0-2.3-.3-2.4-7-2.4-4.5,0-7-.4-7-1.1s-1.1-.9-3-.6-3.4.1-4.4-.9-2.6-1.3-4.9-.9-3.7.2-4.6-.9c-2-2.3,1.8-3.7,12.5-4.5,5.1-.3,9.8-1.1,10.4-1.7s-.9-.9-5.2-.6c-9,.6-6.4-1.4,4.5-3.4,7.9-1.5,8.7-1.8,8.7-3.9,0-1.8-.7-2.4-3.7-3-5.3-1-5.6-1.4-3.1-3.6l2.3-2-5.5.6c-9.2.9-14.3.8-19-.5-2.5-.7-5.1-1.5-5.9-1.7s-1.1-.7-.5-1.3c1.2-1.2,10.1-1.4,17.5-.5,3.8.5,5.9.4,6.3-.4s-.2-1.1-1.9-1.1c-3.4,0-2.3-1.7,1.8-2.9,2.3-.7.8-.8-5.5-.4-5.7.4-8.8.2-8.8-.4s-1-1.3-2.2-1.6c-4.5-1.2-.3-2.2,13.5-3.2l14.2-1.1-3.7-1.9c-4.4-2.2-4.5-2.5-1.8-5s2.5-3.5-.5-3.5c-1.4,0-2.5-.6-2.5-1.3,0-.9-1.2-1.1-4-.9-3.8.4-7-.9-7-2.9,0-.5,3.5-.9,7.8-.9,6.9-.1,7.5-.2,5.8-1.5-2-1.5-2.2-1.4,2.9-3,2.9-.9,1.4-2-2.7-2-2.4,0-4.3-.6-4.6-1.3s-2.4-1.2-5.8-1.2c-4.2,0-6-.5-7.7-2.1l-2.2-2.1,10,.7a116.89,116.89,0,0,1,12.3,1.2c1.7.4,2.2.1,2.2-1.6s-.6-2.1-2.6-2.1c-1.4,0-2.3-.4-1.9-1s-.8-1-2.8-1c-3.4,0-9.1-2.3-10.2-4.1-.4-.6,1.4-.7,4.7-.3,5.3.5,12.8-1.2,13.5-3.2.4-1.3-8.8-1.5-10.4-.3-1.6,1.4-15.3,2.3-15.3,1.1,0-.5,2.6-1.7,5.8-2.7s6.6-2.2,7.7-2.6a25.46,25.46,0,0,1,7-1.1c5.9-.4,6.3-2.2.5-2.6-2.4-.2-4.3-.9-4.7-1.8a2.46,2.46,0,0,0-2.2-1.4c-1.8,0-9-4.9-9.1-6.2,0-.4,1.6,0,3.5.8a21.3,21.3,0,0,0,5.7,1.4c2,0,1.9-.3-1.2-3-3.8-3.2-2.7-3.9,2.1-1.5,1.6.9,3.4,1.3,3.9,1s1.9-.1,3.1.5c1.4.8,2.5.8,3.1.2,1.3-1.3-2.8-4.2-5.9-4.2-2,0-7.3-4.5-7.3-6.2,0-.4,1.6-.4,3.7-.1,2.5.4,3.4.3,2.9-.5-.3-.6.3-1.4,1.6-1.8l2.2-.7-2.3-1.8-2.3-1.9h3.1c3.2,0,4.2-1.4,1.6-2.4-.8-.3-1.5-1.7-1.5-3.1a13,13,0,0,0-1-4.6c-.9-1.6-.7-1.9,1.2-1.9,2.8,0,4.1-.9,5.5-3.4.9-1.6,1.2-1.4,3.3,2a29.8,29.8,0,0,0,4.4,5.7c1.9,1.7,2,1.9.3,2.8-2.4,1.4-2.1,2.7.6,3.1,1.2.2,2.1.9,1.9,1.6s1,1.7,2.5,2.3c2.1.8,2.4,1.2,1.3,1.9s-.8,1,1.3,1.5c3.3.9,7.4,6.2,5.9,7.7-.7.7-1.6.6-3-.1-2.7-1.4-4.5-1.4-3.6,0,1,1.7-1.6,2.8-4.3,1.8-5.6-2.1-5.9,0-.5,3.3l3.7,2.3-3.3.5c-5.4.8-3.7,2.5,3.2,3,3.6.3,7.1,1.1,7.8,1.9,1.1,1.1.6,1.3-2.9.7-2.7-.4-4.3-.2-4.3.4a1.1,1.1,0,0,0,1.1,1,.55.55,0,0,1,.5.9c-.4.5-2.2.5-4.3,0-8.3-1.9-10.1,0-3,3l4.2,1.9-4.2.7c-6.6,1.1-5.3,4.5,1.7,4.5a6.06,6.06,0,0,1,4,1.5c1,1.2.9,1.5-.4,1.5-1,0-1.5.4-1.2.9,1,1.6-4.7,1.9-7.1.4-3.4-2.3-2.8.2.7,2.7,2.4,1.7,4.7,2.2,11,2.3,4.6.2,8.5.8,9.2,1.5.9.9.7,1.2-1,1.2-1.2,0-2.2.4-2.2.8s-1.7.9-3.7,1-4.9.2-6.3.2a22,22,0,0,1-5.5-.6c-2.6-.6-2.8-.5-1.7.8s13,5.6,20.7,7.3c2.7.6,2.8.8,1.3,1.9-1,.7-1.5,1.5-1.2,1.9s-1.5,1-4.1,1.5c-4.7,1-8.1,0-14.2-4.4-2-1.4-2.3-1.4-2.3-.2a6,6,0,0,0,2,3.3c2.3,2.1,2.6,4.5.7,4.5a7.11,7.11,0,0,0-3.1,1.3c-1.6,1.2-1.6,1.4.1,3.4,1,1.1,4.2,2.9,7.1,3.9,6.1,2.2,6.7,3.4,1.5,3.4-3.6.1-3.7.1-1.8,1.6s1.7,1.6-2.7.9-4.8-.5-4.8,1.5a3.11,3.11,0,0,0,1.6,2.7,1.54,1.54,0,0,1,1,1.9c-.4,1.1,1.1,1.4,7.7,1.5,10.8,0,20,1.9,18.1,3.7-.7.6-3.1,1.2-5.3,1.2-3,0-3.9.4-3.5,1.4s-.5,1.1-4.8.4c-6.2-1.1-7.1-1.2-12-1-4.6.2-5.1,2.6-1.3,6.2,2.4,2.3,2.4,2.3.5,3.7-2.3,1.6-2.6,3.3-.6,3.3a4.42,4.42,0,0,1,2.6,1.5c.9,1,3.2,1.5,7.4,1.5,7.2,0,13,1.5,16.9,4.2,3.5,2.5,3.1,3.1-1.4,1.7a56.93,56.93,0,0,0-11-1.5c-6.6-.4-7.9-.2-9.9,1.6-1.6,1.4-3.2,1.9-4.7,1.5-3.4-.8-2.9,1.2,1.2,4.9l3.5,3.2-2.2,2.2-2.2,2.1,2.5.9c3.1,1.2,17,2.2,16.4,1.2-.7-1.2,6.1-1.9,13.3-1.5,3.7.2,5.9.2,5-.1-2.2-.7-2.4-2.4-.4-2.4a2.53,2.53,0,0,0,2-.9c.3-.5-2.3-.6-5.9-.3-4.5.3-6.5.1-6.5-.7,0-.6-.8-1.1-1.7-1.1-1.5,0-1.6-.2-.3-1,.8-.5,5.6-1,10.5-1.1s9.9-.4,10.9-.8c1.7-.6,1.5-.9-1.2-2-3.6-1.5-3.9-2.3-1.7-4.1s1.9-3-.5-3c-1.1,0-2-.5-2-1.1s-1-.9-2.5-.5c-2.6.7-7.1-1.5-5.8-2.7.3-.4,3.1-.7,6.2-.7,3.8,0,5.1-.3,4.1-1s-.8-1.1,1.5-2.2l3-1.2-3.7-.4c-2.1-.2-3.8-.7-3.8-1.3s-2.2-.9-4.9-.9c-3.3,0-5.3-.5-6.2-1.7-1.3-1.5-.7-1.6,8.4-.9,8.4.6,9.7.5,9.7-.8a1.83,1.83,0,0,0-2-1.6c-1.1,0-2-.4-2-1s-1.3-1-2.8-1a9.94,9.94,0,0,1-4.7-1.3c-1.6-1.2-1.1-1.5,4.5-2,3.4-.3,6.7-1,7.2-1.5,1.3-1.3-6.9-2.7-8.5-1.4-.7.5-3.9,1-7.2,1s-5.5-.1-5-.4c4.5-2,15.1-5.2,15.8-4.7,1.3.8,5.8-.7,5.2-1.7-.3-.6-2.2-1-4.1-1s-3.4-.4-3.4-.9-1-1.1-2.2-1.5a16.75,16.75,0,0,1-5.3-3.1l-3-2.5,4.3,1.6c5.3,2.1,6.6,1.1,2.7-2.1l-3-2.5,3,1.1a42.72,42.72,0,0,0,5,1.5c1.1.2,2.7.5,3.5.6a1.46,1.46,0,0,0,1.8-.7c.4-1.2-1.3-2.2-4.9-2.9a7.76,7.76,0,0,1-4.3-3.1l-1.6-2.5,3.1.7c2.3.4,3,.3,2.5-.5s-.1-1.2.8-1.2c1.9,0,2.1-1.1.4-2.8-.9-.9-.7-1.2,1-1.2,1.2,0,2.2-.4,2.2-1a1,1,0,0,0-1-1c-.5,0-1-.9-1-2.1a11.77,11.77,0,0,0-1-4c-.9-1.6-.7-1.9,1.4-1.9a5.35,5.35,0,0,0,3.9-2c1.4-2,1.5-2,2.7.9a14.26,14.26,0,0,0,3.1,4.7c1.4,1.3,1.6,2,.8,3s-.7,1.5.5,2a2.34,2.34,0,0,1,1.6,2,1.45,1.45,0,0,0,1.5,1.4,1.45,1.45,0,0,1,1.5,1.4c0,.8,1,1.6,2.3,2a6.17,6.17,0,0,1,3.4,3.2c1.2,2.6,1.2,2.6-2.3,2-2.5-.5-3.4-.4-3.2.6s-.7,1.2-2.9,1c-3.8-.4-4.3,1.2-1,2.9l2.2,1.2-2.8,1.2c-3.8,1.6-2.3,2.5,3.9,2.5,2.9,0,5.6.5,5.9,1s-.7,1-2.7,1c-2.6,0-3,.3-1.8,1.1s.1.9-3.7.4c-6-.7-7.3.9-2.2,2.7,2.7.9,2.9,1.2,1.5,2a4.63,4.63,0,0,1-3.2.4c-1.1-.4-1.4-.1-1.2,1.2a3.31,3.31,0,0,0,2.8,2c4.7.6,5.2,1,3.4,3.1-1.3,1.5-2.2,1.7-4.1,1-1.2-.4-2.3-.5-2.3,0,0,1.8,2.9,3.1,8.6,3.6,3.2.4,7,.9,8.4,1.2l2.5.5-2.5,1a8.4,8.4,0,0,1-4.7.3c-1.2-.3-2.5-.1-2.8.5-.8,1.4-4.8,1.3-6.3-.2-.6-.6-1.5-.9-1.9-.5s-.2,1.2.4,1.8c1.4,1.4,10.5,4.5,15.8,5.5,2.2.4,3.3.9,2.5,1.2a7.25,7.25,0,0,0-2.5,1.8c-2.1,2.8-8.8,1.7-14.2-2.2-2.8-2-3-.4-.3,2.1s2.5,3.4-.5,4.5c-4.3,1.6-2.2,4.9,4.3,6.8,2.5.8,4,1.7,3.6,2.3a2.28,2.28,0,0,1-2.5.6c-2.1-.6-2.6.8-.6,1.7.6.3-.7.3-3,0-3.5-.5-4.3-.3-4.3,1a2.74,2.74,0,0,0,1.6,2.3,1.48,1.48,0,0,1,.9,2c-.4,1.3.2,1.4,3.7.9,6.1-.8,19.3,1.5,17.6,3.2a6.25,6.25,0,0,1-3.9,1.2c-1.5,0-2.9.5-3.1,1.1-.3.8-2,.7-6.1-.3-3.1-.8-5.7-1.1-5.7-.6s-1.1.6-2.5.2c-2-.5-2.5-.2-2.5,1.3a6.19,6.19,0,0,0,2,3.8c1.8,1.6,1.9,2,.5,2.7-.8.5-1.5,1.3-1.5,1.8,0,1.8,6,4,11,4,5.3,0,11.2,1.9,12.5,4.1.6.9.2,1-1.6.5-5.3-1.7-14.9-1.7-17.1-.1a9.48,9.48,0,0,1-4,1.5c-2.5,0-2.3,1.2.6,3.9,2,1.9,2.3,2.7,1.3,4.2-1.5,2.5-.7,3,5.5,3.5,9.9.7,16.3,1.7,14.8,2.2a5.32,5.32,0,0,0-2,1.3c-.3.5-4.5,1-9.3,1.1-6.2.2-8.7.7-8.7,1.6a1.2,1.2,0,0,1-1,1.2c-.7,0-1,2.2-.8,5.7l.3,5.7,4,1.2c4.9,1.4,14.1,5.9,15,7.4.8,1.3-1.1,1.3-3.8-.1-1.6-.9-2.2-.9-2.5,0-.2.7-2.9,1.1-6.8,1.1-6.4,0-6.4,0-6.4,2.9s1.8,4.1,6.5,4.1c2.5,0,13.5,5.2,13.5,6.4,0,.5-2.2.6-5,.3-5.6-.7-6.4-.1-2,1.4,1.7.6,3,1.5,3,2,0,1.5-6.7,1-10.5-.8-3.1-1.5-3.7-1.5-4.5-.3-1.1,1.7-1.2,11-.2,18.5l.7,5,5,.9c2.8.4,8.6.9,13,1.1,8.4.2,28.5-1.5,28.5-2.5,0-.3,3.2-.7,7.2-.8s7.5-.7,7.8-1.1,2.8-1,5.6-1.3a19.41,19.41,0,0,0,9.8-3.7c2.6-1.7,5.1-2.9,5.6-2.6,1,.6,13.7-2.2,16-3.5,1.2-.7,1-1-1-1-1.7,0-.1-1,4.6-2.9,14.4-5.7,49.4-25.7,49.4-28.2,0-.5.6-.9,1.3-.9,1.9,0,13-10.4,23.5-21.9,34.5-38.1,56-81.2,64.3-128.5,3.9-22.5,4.9-59.5,1.6-63.5-.8-.9-1.2-5.8-1.2-13.2,0-8.1-.4-12.2-1.3-13.1s-1.1-.1-.7,4.6c.3,4.3.1,6.2-1,7.3-1.8,1.7-2,10.4-.4,12,.9.9.8,1.6-.5,2.8-.9.9-1.6,1.4-1.6,1.2,0-5.6-3.5-31-4.9-34.9-1-2.9-1.6-5.8-1.4-6.4s-.8-4.4-2.3-8.4a127.12,127.12,0,0,1-4-15.3c-1.3-7.4-4.3-13.7-6.5-13.7-1.2,0-1.2.6.6,4.3,1.3,2.5,1.3,2.8.1,1.4a5.45,5.45,0,0,0-3.5-2,3.41,3.41,0,0,1-2.6-1.5c-.4-1.1,0-1.3,1.6-.9,1.8.5,2,.2,1.4-2.1a23.5,23.5,0,0,0-2.8-6.2c-2.3-3.5-2.6-5.9-1.2-9.3.4-.9.3-1.7-.2-1.7s-3.6-2.6-6.9-5.7-5.1-5-4.1-4.3c3.2,2.4,5.6,2.3,5.2-.3-.5-3.9-1-5.1-3.3-7.7-1.2-1.4-1.8-2.6-1.2-2.8a.79.79,0,0,0,.4-1.3.55.55,0,0,1,.5-.9c.6,0,2.3,1.8,3.7,4,2.8,4.2,4.4,4.9,6.3,2.6,1.8-2.1-.4-6.5-5.7-11.5-2.6-2.4-3.7-3.9-2.5-3.3,1.6.9,2.2.9,2.6-.1.2-.7,1.8.2,4,2.5,2.1,2,3.7,3.3,3.7,2.8s1.1-.5,2.5-.2c2.2.4,2.5.1,2.5-2.5a15,15,0,0,0-2.5-6.8c-2.8-4.1-2.1-6.5,1.9-6.5,1.7-.1.4-1.7-5.9-7.7-4.4-4.2-7.1-7-6-6.3s5.4,4.7,9.6,8.7c4.4,4.2,8.5,7.3,9.7,7.3,1.6,0,.4-1.6-5.1-7-8.9-8.6-17.5-15.9-20.4-17.3-1.3-.5-2.3-1.4-2.3-1.9,0-1.4,21.8,13.9,27.7,19.5,4.8,4.5,5.3,2.4.7-2.6-2.1-2.3-2.8-3.2-1.4-2.1,9.6,7.8,14.7,13,16.5,16.4,1.1,2.2,6.8,10.7,12.7,18.8,12.5,17.3,16.6,23.7,17.2,27.3.5,3.2,3.6,9.3,4.3,8.6a3.56,3.56,0,0,0-.6-2.5,10.07,10.07,0,0,1-1.1-3.8c0-2.7,2.7.1,7.8,8.1,5.4,8.4,5.1,8,5.7,7.3.3-.3-.8-3.6-2.5-7.3-3.4-7.5-3.4-9.2-.1-4.6s6.3,12,5.6,14c-.3,1,1.1,5.4,3.3,10.2,2.2,4.6,5,11.4,6.3,15.1,1.5,4.4,2.6,6.2,3,5.1.8-2.3,4.6,20.4,6.3,38.2,2.2,21.7,2.3,24.5,1,24.5-.7,0-1.3,3.4-1.7,8.8-1,12.6-6.3,43.9-9.6,56.7-3.5,13.1-16,46.7-17.8,47.8a2.67,2.67,0,0,0-1.3,1.9c0,1.5-14.3,29.7-17.5,34.6-1.5,2.3-2.4,4.6-2,5.2s.1.9-.6.8a1.54,1.54,0,0,0-1.7,1.1c-.3,1,0,1.1.9.5,1.2-.6,1.2-.5.1.8a14.5,14.5,0,0,0-2.1,4.5c-.6,2.1-1.4,2.8-3.2,2.8-1.6,0-2.4.6-2.4,1.7,0,.9-2.3,4.1-5,7.1-8.4,9.1-14.5,16.5-14.5,17.5a4.29,4.29,0,0,1-1.5,2.2c-1.8,1.5-2,3.4-.2,2.4.6-.4.3.2-.7,1.4s-2.3,2.2-2.8,2.2c-1.7,0-11.7,9.4-10.7,10.1.5.3-1.4,2.5-4.3,4.9s-4.5,3.5-3.5,2.4c3.7-4.4.9-3.6-6.3,1.7a50.59,50.59,0,0,1-5,3.3c-3.7,1.7-5.8,3.4-9.5,7.4-3,3.4-7.6,6.2-20,12.4-8.8,4.4-16.8,8.7-17.7,9.6-1.7,1.4-7.3,4-18.8,8.5-3,1.2-5.6,2.5-5.8,2.9s-1,.4-1.8.1a3.22,3.22,0,0,0-2.9.7c-.8.7-3.3,1.4-5.6,1.5-5.9.5-14,2.6-13.4,3.5.3.5-.4.6-1.5.3s-2,0-2,.5c0,1.2-5.1,2.8-11,3.6-1.9.3-11.8,1.8-22,3.5-15.3,2.5-21.2,3-34,2.9-8.5-.1-16.8-.5-18.5-1Zm-13.5-8.7c0-.9-9.9-2.5-10.8-1.7s4,2.5,7.6,2.5c1.7.1,3.2-.3,3.2-.8Zm-93-24.6a85.3,85.3,0,0,0-7.7-4.6c-4.3-2.3-11.3-6.4-15.6-9.1s-8-4.8-8.2-4.8.2,1.1.8,2.4c1.3,2.8,11.2,9,12.7,8.1.6-.4.9-.2.8.4-.4,1.6,13.1,8.9,15.3,8.4a5,5,0,0,0,1.9-.8Zm71.5-16.1c-1.8-1.4-1.8-1.4,1-.9,1.7.2,5.7.9,8.9,1.5s6.6,1,7.3,1c1,0,1.3-2.7,1.3-11.5,0-10.5-.2-11.5-1.8-11.5a6.12,6.12,0,0,0-3.8,2.1c-2.7,3-7.7,5.5-8.2,4-.3-.8-.9-.8-2.3,0a4,4,0,0,1-3.2.2,6.17,6.17,0,0,0-3.2-.5c-1.1.1,1.2-1.4,5.1-3.3,9.7-4.7,11-6.4,4.5-5.7a41.43,41.43,0,0,1-8.8-.3c-3.3-.6-3.5-.8-1.7-1.5a42.23,42.23,0,0,1,8-1.5c7.7-.9,12.6-2.3,14.2-4.3,2.4-3.1,1.4-4.2-3.9-4.2-3.1,0-4.8-.4-4.4-1,.9-1.4-1.6-1.2-4.5.5-3.2,1.8-4.1,1.8-3.4,0,.4-.9,0-1.5-.7-1.5-3.6-.1,3-2.3,9.3-3.1,8.3-1,8.8-1.3,8.8-4.6,0-2.3-.3-2.5-2.7-1.8-5.4,1.4-14.3,1.1-17.6-.7-3.5-1.8-3.4-1.9,4.6-3.7a16.75,16.75,0,0,1,8.6-.1c4.9,1.3,7.1.5,7.1-2.6,0-2.1-.5-2.4-3.4-2.4-5.2,0-12.6-1.2-12.6-2,0-.5,2.5-1.8,5.5-3.1s5.5-2.6,5.5-3.1c0-1.2-4.8-1-7.1.5-1.7,1-2.3,1-2.6,0-.6-1.6-3.8-1.7-6.3-.1-1.5,1-2.4.9-4.4-.1-1.4-.8-2.3-1.8-2-2.2,1.1-1.8-3.6-3-7.4-1.8a31.76,31.76,0,0,1-9,.8l-5.2-.4v3.2c0,3.6,2.1,5.3,6.8,5.3,1.6,0,6.4,1.6,10.7,3.6,6.5,3,7.6,3.8,6.1,4.6-1.8,1-6.7.7-9.8-.7-1.1-.4-1.8-.3-1.8.4,0,.5,1.8,1.6,4,2.2,4.2,1.3,5,2.3,2.4,3.3-2.9,1.1-6.8.6-11.3-1.5-7.5-3.3-7.5-3.2-6.7,15.9.9,23.7,1.1,24.7,5.4,27.4a20.73,20.73,0,0,0,9.6,2.5c3.3.2,6.7,1,7.6,1.8a12.51,12.51,0,0,0,5,1.8c1.9.2,3.7.4,4,.5s-.4-.5-1.5-1.4ZM118,444.55c-3.5-2.8-6-4.1-6-3.2s6.1,5.3,7.5,5.3c.5,0-.1-.9-1.5-2.1Zm3.6-51.6c-.4-1.2-1.4-2.3-2.3-2.3-1.4,0-6.8,4.8-6.1,5.5.2.2,2.1,1.8,4.3,3.5l4,3.2.3-3.8a23.69,23.69,0,0,0-.2-6.1ZM98,385.05c-3-3-5.6-5-5.8-4.4-.4,1.2,10,11.1,10.7,10.4.3-.3-2-2.9-4.9-6Zm14.5,4.2,3-2.4-5.3,1c-4.2.9-5,1.3-4.1,2.4C107.7,392.25,109.1,392,112.5,389.25Zm111.1-6.5c-.7-1.1,2.7-2.1,7.4-2.1,6.9-.1,15-4.3,12.7-6.7-.4-.4-3.2-.7-6.2-.6-3.2.1-5.5-.3-5.5-.9s-1-.8-2.4-.4-2.8.2-3.1-.4-2.1-1-3.8-1a10.64,10.64,0,0,1-4.6-.9c-2.4-1.5,2.2-3.1,9.1-3.1,4.1,0,7.1-.5,8.4-1.5,1.8-1.3,1.6-1.4-2.6-1.6s-4.2-.2,3-1.8c9.1-2.1,10.5-4.3,3.9-6.1-3.5-1-4-1.4-2.6-2.1.9-.6,1.7-1.3,1.7-1.7,0-1.1-18.4.9-19.1,2-.4.6-3.5,1-7,1.1s-6.7.6-7.1,1.1-1.6.6-3.3-.2c-3.5-1.6-4.8-1.5-4.1.4.4,1.1-.1,1.8-1.4,2.1-1.6.4-2,1.3-1.9,4.7.2,7.7.9,8.8,7.4,11.1s12.8,5.4,16,7.9C220.6,383.65,224.5,384.25,223.6,382.75Zm-25.7-5.2c-.9-.5-1.5-.4-1.8.2a2.1,2.1,0,0,0,1,2c.9.5,1.5.4,1.8-.2A2.1,2.1,0,0,0,197.9,377.55ZM50,371.75a4.12,4.12,0,0,0-1.5-2.1c-1.6-1.4-1.8-1-.9,1.4C48.2,372.75,50,373.25,50,371.75Zm193-3.6c0-.8-.4-1.5-1-1.5s-1,.7-1,1.5.5,1.5,1,1.5S243,369,243,368.15Zm-55-42c0-.8-.4-1.5-1-1.5s-1,.7-1,1.5.5,1.5,1,1.5S188,327,188,326.15Zm284.5-2.6c.9-1.7,1.4-3.3,1.1-3.6s-1,.7-1.6,2.2a28.63,28.63,0,0,1-1.6,3.6c-.3.5-.3.9,0,.9S471.7,325.25,472.5,323.55ZM242,294.65c0-.5-.7-1-1.5-1s-1.5.5-1.5,1,.7,1,1.5,1S242,295.25,242,294.65Zm8.5-11a2.82,2.82,0,0,0-2.1-1c-.8,0-1.2.5-.9,1a2.52,2.52,0,0,0,2.1,1C250.4,284.65,250.8,284.25,250.5,283.65ZM8.4,231.25c-.8-7-.8-7.1-1.6-3.1a32.88,32.88,0,0,0-.2,9.5c.6,4.8.8,5.2,1.6,3.1C8.7,239.35,8.8,235.05,8.4,231.25Zm178.6,5.4c0-.5-.9-1-2.1-1s-1.7.5-1.4,1a2.52,2.52,0,0,0,2.1,1C186.4,237.65,187,237.25,187,236.65Zm10.5-14a2.82,2.82,0,0,0-2.1-1c-.8,0-1.2.5-.9,1a2.52,2.52,0,0,0,2.1,1C197.4,223.65,197.8,223.25,197.5,222.65Zm-172.8-6.2c-.2-1.3-.4-.5-.4,1.7s.1,3.2.4,2.3A13.39,13.39,0,0,0,24.7,216.45Zm-15.4-7.6c.2-4,.2-7-.2-6.7-1.2,1.2-2.6,9.2-2.3,13C7.3,221.15,8.8,217.45,9.3,208.85ZM487,167.15a2.33,2.33,0,0,0-1-2c-.6-.4-1,.5-1,2s.4,2.4,1,2A2.33,2.33,0,0,0,487,167.15ZM47.1,101.35c1.7-1.5,2.4-4,1.7-5-.2-.2.3-1.1,1-2s.9-1.7.3-2.2C49,91.55,34,121,34,123.65c0,.8,2.5-3.4,5.6-9.5S46,102.35,47.1,101.35Zm426.5-18.5c-1.3-2.6-6.3-7.8-5.5-5.7s5.4,8.5,6.2,8.5C474.7,85.65,474.4,84.45,473.6,82.85ZM61.6,82a8.24,8.24,0,0,0,1.4-2.5c0-1-3.3.3-4.2,1.6-2,2.9.7,3.7,2.8.9ZM57,76.35c-.1-1.3-2.6,1.6-4.1,4.8-.7,1.3-.1,1,1.5-.8C55.8,78.85,57,77.05,57,76.35Z" style="fill:#c4a161"/><path d="M138.5,468.55c-8.6-4.9-25.5-16.5-25.5-17.5,0-.2,3.9,2.2,8.8,5.4s12.6,8.2,17.5,11.1c7.6,4.7,9.6,6.1,8.4,6.1-.2,0-4.3-2.3-9.2-5.1Z" style="fill:#c4a161"/><path d="M439,454c.1-1.4,7.9-6.3,8.5-5.4.3.6-1.1,2.1-3.2,3.5C440.4,454.75,439,455.25,439,454Z" style="fill:#c4a161"/><path d="M446.5,452.55c.4-.6,1-.8,1.3-.5s1.2,0,2.1-.7c1.4-1.1,1.4-1,.2.6C448.7,453.75,445.4,454.35,446.5,452.55Z" style="fill:#c4a161"/><path d="M449.9,447.25c1.3-1.6,5.1-4.1,5.1-3.3a20,20,0,0,1-3.2,2.7c-2.1,1.5-2.8,1.7-1.9.6Z" style="fill:#c4a161"/><path d="M457,444.75c0-.5.9-1.1,2.1-1.4,1.6-.4,1.8-.3.8.9-1.3,1.6-2.9,1.9-2.9.5Z" style="fill:#c4a161"/><path d="M179.6,440.15c-2.5-1.9-.9-1.9,2.4,0,1.4.8,1.9,1.4,1,1.4A6.85,6.85,0,0,1,179.6,440.15Z" style="fill:#c4a161"/><path d="M470.5,430.75c-.2-.5.7-1.9,2.2-3.2s2.3-1.8,1.9-1.1c-.9,1.5-.1,1.5,2.7.1,2.1-1.1,2.1-1.1-.1,1.4-2.5,2.6-5.9,4.1-6.7,2.8Z" style="fill:#c4a161"/><path d="M88.5,428.75c-.3-.5.2-1.1,1-1.5a1.89,1.89,0,0,1,2,.3c.3.5-.2,1.1-1,1.5A1.89,1.89,0,0,1,88.5,428.75Z" style="fill:#c4a161"/><path d="M82.1,421.25c-.8-.9-.8-1.6-.2-2s1.5.3,2.1,1.4C85.2,423,83.8,423.35,82.1,421.25Z" style="fill:#c4a161"/><path d="M486.3,416c2-2.2,3.5-4.2,3.1-4.5s.2-1.7,1-3,1.4-2.7,1.1-3,2.6-3.1,6.6-6.3,6.9-5.1,6.7-4.2c-.5,2.3-16.5,21.3-19.6,23.2-2.2,1.4-2,1,1.1-2.2Zm10.6-12.3c3.3-4.2,2.9-5.7-.5-1.7-3.6,4-4.7,5.7-3.7,5.7C493.2,407.65,495.1,405.85,496.9,403.65Z" style="fill:#c4a161"/><path d="M1542.2,401.65c-71.4-5.6-130-39.7-156.5-90.9a149.92,149.92,0,0,1-13.9-38.4c-3.1-14.4-3.1-38.8,0-53.3,14.1-66.1,66-121.5,139.7-148.9,36.6-13.7,90.7-18.9,124.1-11.9,11.3,2.3,28.5,8.6,36.7,13.5,27.8,16.5,31.9,39.9,7.6,44.4l-3.6.7-2.7-7.4c-4.8-13.4-13.9-24.7-25-31.2-24.3-14.2-73.9-14.1-117.6.3-53.9,17.8-97.3,55.2-120.9,104.1-11.1,22.9-15,38.4-15.8,61.2-.8,23.8,2.6,39.8,12.7,60.3,19.6,39.6,62.1,67.6,115.5,76.1,15.7,2.4,47.6,3,61.6,1,59.2-8.3,118-41.8,135-76.8,1.3-2.7,2.8-4.8,3.5-4.8,2.1,0,7.3,6.8,8.4,11.1,1.6,5.9-.2,12.5-6,21.2-4.8,7.4-15.9,18.9-24,25-27.8,21-68.3,37.4-106.5,43.2-12.7,1.9-37.7,2.6-52.3,1.5Z" style="fill:#c4a161"/><path d="M509,388.85c0-1.8,4-8,5.5-8.6,1.2-.4,1.2,0-.2,2.2C511.4,387.15,509,390,509,388.85Z" style="fill:#c4a161"/><path d="M37.4,364.85a7.06,7.06,0,0,1-1.8-3.4c-.5-2.2-.3-2.6.9-2.2a4.92,4.92,0,0,1,2.1,3.1C39.3,365.05,38.9,365.85,37.4,364.85Z" style="fill:#c4a161"/><path d="M524.7,363c-.4-.3.5-2.7,1.9-5.2,4.1-7,4.8-7.3,1.9-.6-3.1,6.9-3,6.7-3.8,5.8Z" style="fill:#c4a161"/><path d="M309.5,346.55a105.62,105.62,0,0,1-22.3-5.6l-4.3-1.6L291,337c22.8-6.5,38.9-20.5,56.9-49.3,1.6-2.5,2-2.8,1.6-1.1-.4,1.3-.7,6-.8,10.5-.1,13.5,4.2,19,14.8,18.9,19.6-.2,33-21.9,29.6-47.8-1.4-10.1-3.9-18.1-9.5-30-6-12.6-9.6-15-9.6-6.2v4.2l-4.6.1c-3,.1-6.9,1.3-11.6,3.6-6.4,3.2-6.9,3.4-6.4,1.4,3-10.3,3.8-15.8,3.3-24.1-.8-17.9-6.3-25.6-27.2-38.7-28.6-18-31.2-16.7-7.1,3.6l10.8,9.1-5.8.6c-6.8.6-9.2,1.7-15.6,7-2.6,2.2-5.1,3.9-5.6,3.9-2.2,0-12.3-10.4-16.2-16.6-4.8-7.6-7.2-12.7-10.9-23.9-2.6-7.5-3-8.1-7.3-10.3-8.2-4.2-18.6-5.3-49.3-5-23.3.1-29.1-.1-34.8-1.5-7.2-1.8-15.3-5.5-20.4-9.4-3.2-2.5-7.9-9-7.1-9.8.2-.3,2.2.1,4.4.7,8.8,2.5,34.2-.2,33.1-3.5-.6-1.9-12.1-7.7-20.2-10.2-4.4-1.3-12-3.2-17-4.1s-9.6-1.8-10.4-2c-1.8-.6,7.9-10.7,20.4-21.2,24-20.1,50-33.2,78.5-39.4,9-1.9,13.3-2.2,31-2.2,21.8.1,27.3.8,45.8,6l9.4,2.7,9.6-3.8c12.3-4.8,26-11.7,29-14.5,1.2-1.1,2.7-1.8,3.2-1.5s3.7,5.9,6.9,12.3c13.3,26,24.9,42.6,33.7,48.1l4.3,2.8-8.1.7c-4.5.4-8.5.9-9,1.2s2.4,4,6.5,8.3c16.6,17.1,29.8,42.8,35.9,70.2,3.2,14.5,3.2,37.7-.1,52.9-6.3,29.4-23.7,60.7-46.6,83.5q-32.1,32.1-71.8,33.9a115.78,115.78,0,0,1-17.2-.5Z" style="fill:#c4a161"/><path d="M718.3,346.65c-14.2-3.1-27.6-26.3-37.8-65.5-7.8-29.7-11.9-58.5-11.3-79.4.4-16.2.7-17,6.8-15.2,5.5,1.6,10.8,6.5,11.9,10.9.5,2.1,1.2,11.4,1.5,20.7,1.3,38.5,10.7,78.2,22.2,93.3,5.2,6.7,7.1,4.3,17.4-21.6,13.8-34.7,20.3-46.5,32.6-59,9.2-9.3,14.1-11.6,24.9-11.7,11.2,0,18.7,3.7,29.9,14.9,7.4,7.3,12.9,14.6,34.4,45.4,13.4,19.2,29,34.3,41.7,40.6,17,8.3,41,7,63.4-3.5,33.6-15.7,60-47,68.3-80.9,2.7-10.8,2.8-30.5.4-43.2-9.2-48.5-46.1-88-93.4-100.3a99.77,99.77,0,0,1-11.2-3.5c-3.2-1.7-5.1-6.7-5.7-14.5l-.6-7.3,4.3-1.2c5.3-1.4,13.7-.6,24.6,2.6,48,13.8,91.7,63.9,102.8,117.7,4.2,20.3,4,42.5-.4,58.6-9.2,32.9-41.1,66.6-81.2,85.6-45.8,21.6-81.2,16.9-111.9-15.1-9.2-9.7-14-16.5-29-41.3-18.3-30.5-25.6-38.1-36.5-38.1-6.7,0-12.3,3.6-17.9,11.4-6.7,9.5-11.4,20.4-22.1,51.8-10.2,30.1-14.9,41-19.2,45-3.4,3.2-4.9,3.6-8.9,2.8Z" style="fill:#c4a161"/><path d="M66.6,341.55c-2.3-5.7-1.5-5.9,1.2-.4,1.2,2.5,1.8,4.5,1.3,4.5S67.5,343.75,66.6,341.55Z" style="fill:#c4a161"/><path d="M535,340.15c0-1.5,1.8-4,2.4-3.4.3.3-.1,1.4-.9,2.5S535.1,340.75,535,340.15Z" style="fill:#c4a161"/><path d="M27.1,333.05c-1.1-2.5-.8-4.5.4-3.2.7.7,1.7,5.8,1.2,5.8a8.88,8.88,0,0,1-1.6-2.6Z" style="fill:#c4a161"/><path d="M58.8,328.35a35.79,35.79,0,0,1-2.1-5.4,26,26,0,0,0-1.8-4.9c-1.1-2.6-1.7-4.9-1.4-5.2s1.2,1.2,2,3.4,3.1,6.9,5,10.5c2.4,4.6,3,6.6,2.1,6.6s-2.5-2.3-3.8-5Z" style="fill:#c4a161"/><path d="M18.2,326.15a10.08,10.08,0,0,1-1.1-4.3c0-.9.7.1,1.5,2.2,1.6,4.5,1.3,5.9-.4,2.1Z" style="fill:#c4a161"/><path d="M1960.8,293c-5.8-6.2-11.6-21.4-14.5-37.8-1.5-8.5-1.8-15.5-1.6-47.6l.1-37.7-10.9.6-10.9.5-1.5-3.7c-1.6-3.8-1.3-7,1.2-11.8,1.3-2.8,1.4-2.8,12.2-2.8h10.8l.6-9.2c.4-5.1,1.2-19.4,1.8-31.8,1-17.9,1.5-22.9,2.8-24.4,4.1-4.9,18.3-8.5,20.9-5.3.7.8.1,7-1.9,19.7-3.2,20.2-6.4,49.8-5.5,50.7.3.3,6.3.1,13.3-.4,11-.8,13-.8,14.1.6,2.1,2.6,1.4,7.5-1.8,11.9l-3,4.2h-23.7l-.7,6.2c-1.4,13.9-1.9,61.3-.7,69.8,2.2,15,3.4,18.3,11.1,29l7.1,10.1-3.1,3.8c-2.7,3.5-9.9,8.1-12.6,8.1-.6,0-2.2-1.2-3.6-2.7Z" style="fill:#c4a161"/><path d="M42.6,285.55a29,29,0,0,1-1.5-7.3c0-1.2.8,1.1,1.9,4.9C45.1,291.45,44.8,293.15,42.6,285.55Z" style="fill:#c4a161"/><path d="M1124.3,288.75c-4.2-2.6-8.1-9.5-9.6-16.9-.7-3.3-2-6.9-2.9-7.9-3.1-3.4-3.6-9.4-2.7-39.3,1.1-38.9,3.7-76.3,7.5-108,2.6-22.5,6.5-45.5,8-47.7,1.5-2.4,5.9-5,10.7-6.4,2.4-.7,3.3-.4,5.4,1.7,3.4,3.4,6.9,11.5,10,23.1,3.7,13.6,3.9,36.9.5,54.8-5.7,30.1-16.1,66-23.3,80.5l-4.1,8.2.4,14.2c.5,14.5,1.4,18.5,5,22.4,1.7,1.7,3.3,2.2,7.2,2.2,6.9,0,11.6-2.6,23.1-12.6,8.8-7.9,10-8.6,12.4-7.8,3.2,1.1,4.6,4.9,3.7,9.7-.6,3-2.4,5.3-10.4,12.4-19.2,17.1-32.2,22.6-40.9,17.4Zm8.2-113.7c7-24.2,8.9-35.4,9-53.4,0-12.5-.4-16.7-1.9-21.8-1.7-5.7-3.7-8.4-5.2-7-1.9,1.9-9.3,70.7-9.9,92.8l-.5,15.5,2.1-5.5C1127.2,192.65,1130.1,183.35,1132.5,175.05Z" style="fill:#c4a161"/><path d="M1866,281.55c-7.1-1.2-15.7-5.2-19.7-9.2-4.2-4-4.3-7.5-.4-11.9l2.9-3.3,2.9,2.2c10.6,8.5,27.6,10.5,44.4,5.4,12.8-4,16.5-13.6,7.1-18.5-1.5-.8-8.1-3.3-14.7-5.6-16.7-5.9-26-10.3-28-13.4-5.3-8.1,6.7-20.9,21.7-23,4.2-.6,4.9-.4,8.2,2.5,2.5,2.2,3.6,3.9,3.6,5.9,0,3-.5,3.3-7.1,4.4-2.1.4-4.2,1.3-4.9,2.1-1.7,2,1.6,3.8,13,7,10.9,3,22.3,8.2,26.2,12,4.7,4.4,6.1,8.2,5.4,14.3-1.6,13.3-12.1,23.2-29.5,27.7-7.7,2-23.8,2.7-31.1,1.4Z" style="fill:#c4a161"/><path d="M1073.6,277.45c-1.3-1.8-1.6-5.1-1.6-15.3-.1-9.8-.4-13.5-1.5-14.9-2.5-3.3-1.6-19.6,1.6-31.7,1.1-4.4,3.5-5.3,9.5-3.8,7.4,1.9,7.2,1,8,34.1l.7,29.6-4.1,2.1c-5.5,2.8-10.6,2.8-12.6-.1Z" style="fill:#c4a161"/><path d="M1266.3,278.45c-1.3-.6-2.8-2.6-3.5-4.5-.8-2.2-1.7-3.2-2.8-2.8-10.7,3.1-45.8,4.2-56,1.6-12.7-3.2-19-8.3-19-15.5,0-5.4,3.6-16.4,6.4-19.5,6.2-6.8,33.7-16,58.8-19.6,5.7-.8,10.8-1.5,11.3-1.5.8,0,1-21.2.7-67.2-.4-62.5.1-80.5,2.3-82.6,1.2-1.2,9.5,4.1,14.1,9,4.4,4.7,4.6,5.1,4,9.6-.3,2.6-.8,8.5-1.1,13.2a118,118,0,0,1-2.2,14.5c-1.3,5.2-1.5,13.3-.9,61,.4,30.3,1,63.8,1.5,74.5.9,20.3.5,24-3,28.4-2.2,2.8-6.5,3.4-10.6,1.4Zm-11.5-21.1a42.47,42.47,0,0,0,6.6-1.8c.2-.2.6-5.5.8-11.6l.4-11.3h-2.8c-5,0-23.1,3-30.8,5.1-13.5,3.7-29,12.1-29,15.8,0,1,6.4,3.7,12.2,5.2,4.9,1.2,35.3.2,42.6-1.4Z" style="fill:#c4a161"/><path d="M1683.9,278.35c-7.7-2.2-13.8-8-17.7-17-4-9.4-3.4-23.4,1.6-33.5,2.4-4.9,8.4-11.5,12.7-13.9,1.6-1,1.7-1.4.6-4.2-3.2-7.7,2.7-11.4,14.8-9.2,8.1,1.5,12.5,3.8,17.8,9.3,11.2,11.5,14.3,34,6.9,49.2-7,14.2-23.5,22.9-36.7,19.3Zm16.4-14.5a27.32,27.32,0,0,0,6-6.7c2.9-4.4,3.2-5.9,3.5-13.6.3-7.1,0-9.5-1.7-13.5l-2.2-5-9.7.1c-10.9,0-13.8,1.1-17.1,6.7-5.9,9.5-1.4,27.9,7.9,33,3.9,2.1,8.6,1.8,13.3-1Z" style="fill:#c4a161"/><path d="M1816.6,268.45c-1.5-2.3-4.6-12.9-4.6-15.8-.1-3.7-1.6-4.2-4.6-1.5-18.8,17.5-49.7,23-63.8,11.3-5.5-4.5-7-8.1-7-16.8,0-16.7,10.9-28.7,29.8-32.7,12-2.5,29.8-.3,40.9,5.1l4.8,2.4,4.6-4.9c5.2-5.5,7.8-6.1,11.7-2.6,2.4,2.2,2.4,2.3,1.6,12a133.51,133.51,0,0,0,0,20c1.5,16.2,1.6,15.5-4,20.9S1818.7,271.65,1816.6,268.45Zm-39.5-17.4c12.4-3.7,25.9-12.6,25.9-17.1,0-1.8-1.1-2.2-8.2-3.4-17.3-2.8-32-1-38.7,4.7-4.4,3.7-4,10.5.9,15.4C1759.5,253.15,1769.1,253.45,1777.1,251.05Z" style="fill:#c4a161"/><path d="M.8,250.05c-.5-.4-.8-4.3-.8-8.8,0-5.6.3-7.7,1-7s1,4.4.8,8.8S1.2,250.45.8,250.05Z" style="fill:#c4a161"/><path d="M35.7,199.85c-.8-1.1-.4-6.8.9-16.4.5-3,.3-3.8-1-3.8-.9,0-1.6-.4-1.6-1,0-2.3,2.3-11.5,3-12a13.19,13.19,0,0,0,1.8-4.3c.8-2.8.8-3.6-.1-3-.7.3-.4-.3.6-1.4a7.73,7.73,0,0,0,1.7-4c0-2.7,7.2-21.8,11.1-29.4,1.1-2.3,1.5-3.9.8-3.9s-.3-.7.5-1.6A5.18,5.18,0,0,0,55,116c0-.9,2.1-5.5,4.8-10.2a84.83,84.83,0,0,0,4.8-9.6c.2-3.7,8.8-17.4,10.1-16.1.3.2,1.7-1,3.3-2.7,2.7-3.1,2.7-3.1,2.6-.6-.1,1.3.2,2.7.7,3s-2.2,5-5.8,10.5c-15.5,23.1-26.4,48.1-33.5,76.4-2.7,10.9-3.2,13.8-4.8,28.5C36.8,198.85,36.2,200.65,35.7,199.85Zm4.2-31.5c.1-.5-.3-.5-.9-.2a3.47,3.47,0,0,0-.9,2.8c0,2.1.1,2.1.9.2A10.59,10.59,0,0,0,39.9,168.35Zm9.6-31c2-5.4,3.5-10.1,3.2-10.3-.5-.6-2.9,5.1-6.3,15.1-3.6,10.3-1.1,6.6,3.1-4.8Z" style="fill:#c4a161"/><path d="M2.8,192.85c.6-6.2,1.2-6.7,1.2-.9,0,2.5-.4,4.8-.9,5.1s-.6-1.6-.3-4.2Z" style="fill:#c4a161"/><path d="M1074.9,190.75c-3.4-3.4-3.9-4.4-3.9-8.5,0-5.9,3.2-9.6,8.2-9.6,9.6,0,13.8,13.2,6.3,19.8-3.7,3.1-6.2,2.8-10.6-1.7Z" style="fill:#c4a161"/><path d="M9.3,169.55c.8-3.9,1.2-4.8,1.7-3.3a7.57,7.57,0,0,1-.3,4.4c-2,4.6-2.4,4.2-1.4-1.1Z" style="fill:#c4a161"/><path d="M33.5,164.85a11.73,11.73,0,0,1,.4-5.3c.8-2.1,1-2.1,1.1-.4,0,1.4.3,1.6.8.7s.9-.1.9,2a7.53,7.53,0,0,1-1.3,4.5c-1,1-1.4.7-1.9-1.5Z" style="fill:#c4a161"/><path d="M9.5,162.65a1.22,1.22,0,0,0-1.6-.5c-1.3.9-1.1-.1.4-1.7.6-.7,2.7-5.9,4.5-11.6s3.5-10.2,3.7-10-.9,4.7-2.5,10-2.7,10.6-2.5,11.7C11.9,162.85,10.5,164.25,9.5,162.65Z" style="fill:#c4a161"/><path d="M37.1,155.15a20.44,20.44,0,0,1,1.5-4.5l1.4-3.5-.6,3.5C38.9,153.75,36.9,157.55,37.1,155.15Z" style="fill:#c4a161"/><path d="M457.3,119.55a21.61,21.61,0,0,1-1.6-4.9c-.3-1.4-.9-3.6-1.3-5l-.7-2.5,3.1,2.9c3.7,3.4,4.3,5.4,2.8,9.1l-1.1,2.7-1.2-2.3Z" style="fill:#c4a161"/><path d="M28.1,115.15c1.8-4.2,2.8-5.2,2.6-2.6a7.33,7.33,0,0,1-2,3.9C26.9,118.05,26.9,118.05,28.1,115.15Z" style="fill:#c4a161"/><path d="M452.7,114c-1-.9-.9-2.3.2-2.3.5,0,1.1.7,1.5,1.5C454.9,114.65,453.9,115.15,452.7,114Z" style="fill:#c4a161"/><path d="M511.6,89.45c-5.6-8.3-7.9-12.4-5.6-9.8,2.1,2.5,4.4,4.4,5,4.2s.9.2.5.8-.2,1,.3,1,1.4,1.2,2,2.6,1.7,2.2,2.2,1.9.7.1.3,1.1-.2,1.5.3,1.1,1.5.3,2.2,1.4c.9,1.3.9,1.9.1,1.9-.6,0-.2,1.6,1,3.6s2,3.9,1.7,4.1-4.7-6-10-13.9Z" style="fill:#c4a161"/><path d="M454.5,101.65c-.8-1.3.4-3.2,1.6-2.5s1.2,3.5,0,3.5A1.9,1.9,0,0,1,454.5,101.65Z" style="fill:#c4a161"/><path d="M75.1,94.75a15.37,15.37,0,0,1,3.1-4.7c1-.6,1-.4,0,.8-.7.9-1.2,2-1,2.4.3,1.1-2.4,5.4-3.3,5.4-.4,0,.1-1.8,1.2-3.9Z" style="fill:#c4a161"/><path d="M61.7,91.55a18,18,0,0,1,3.2-4.2c.8-.7.2.7-1.4,3.1-3.2,4.9-4.5,5.7-1.8,1.1Z" style="fill:#c4a161"/><path d="M82.2,84.45c.4-1.1,6.8-6.4,6.8-5.6a21.28,21.28,0,0,1-3.6,3.6c-1.9,1.7-3.4,2.7-3.2,2Z" style="fill:#c4a161"/><path d="M68,83.35a24.36,24.36,0,0,1,3.2-3.3l3.2-2.9-2.5,3.2c-2,2.7-3.9,4.1-3.9,3Z" style="fill:#c4a161"/><path d="M74.9,75.25c1.3-1.6,5.1-4.1,5.1-3.3a20,20,0,0,1-3.2,2.7c-2.1,1.5-2.8,1.7-1.9.6Z" style="fill:#c4a161"/><path d="M83.1,74.05c1.3-1.6,2.9-1.9,2.9-.5,0,.5-.9,1.1-2.1,1.4C82.3,75.35,82.1,75.25,83.1,74.05Z" style="fill:#c4a161"/><path d="M496.4,69.45l-2.9-3.3,3.3,2.9a34.58,34.58,0,0,1,3.2,3.3C500,73.15,499.2,72.45,496.4,69.45Z" style="fill:#c4a161"/><path d="M460.5,69.65a77.42,77.42,0,0,0-8-6.6c-4.1-3.1-7.5-5.8-7.5-6.1,0-.6,2.2,1,5.6,4a11.71,11.71,0,0,0,3.6,2.1c1.4.2,8.6,7.6,7.5,7.6a1.8,1.8,0,0,1-1.2-1Z" style="fill:#c4a161"/><path d="M84.3,63.05c2-2.2,3.5-4.3,3.1-4.6s1.2-1.8,3.3-3.1a56.92,56.92,0,0,0,5.4-3.9,10.78,10.78,0,0,1,3.4-2.1c1.2-.4.1,1.1-2.5,3.6-5.2,5-10.1,11.2-9.5,11.9.3.3-.5.4-1.8.3A7.23,7.23,0,0,0,82,66c-.8.6.2-.7,2.3-2.9Z" style="fill:#c4a161"/><path d="M87,53.05c3.5-3.5,3.2-4.7-.4-1.6l-2,1.7,1.9-3c2.6-4.2,15.6-16.7,17.8-17.1,1-.2,1.6,0,1.2.6a2.56,2.56,0,0,1-1.9,1c-1.9,0-5.8,5.7-4.3,6.3.6.3.1.6-1.2.6-1.6.1-2.1.6-1.8,1.5.5,1.3-1.7,4.1-3.8,4.8-.5.2-.9.6-.8.9s-.9,1.6-2.2,2.9-2.2,2.7-1.9,3.4-.5,1.2-1.7,1.3c-2,.2-1.9-.1,1.1-3.3Z" style="fill:#c4a161"/><path d="M112,43.25a2.82,2.82,0,0,1,1-2.1c.6-.3,1-.1,1,.5s.5.8,1,.5,1-.4,1-.1-.9,1-2,1.6C112.4,44.45,112,44.45,112,43.25Z" style="fill:#c4a161"/><path d="M81,38.35a26.15,26.15,0,0,1,4.3-3.7c3.7-2.9,3.9-3,1.7-.6s-6,5.2-6,4.3Z" style="fill:#c4a161"/><path d="M113.9,34.55c1.3-1.1,2.6-1.7,2.9-1.4.8.8-2,3.5-3.7,3.5-1.2-.1-1.1-.5.8-2.1Z" style="fill:#c4a161"/><path d="M96.1,34.85c-.1-.7-.5-1-1.1-.7-1.8,1.1-1-1.1,1-3,1.5-1.4,2-1.5,1.9-.4C97.8,32.75,96.2,36.45,96.1,34.85Z" style="fill:#c4a161"/><path d="M110,33.75c0-1.1,1.9-2.4,3.8-2.7s1.5.2-1.3,2C111.1,34,110,34.25,110,33.75Z" style="fill:#c4a161"/><path d="M101.1,29.45c-.7-1.7-.5-2.6.6-3.5,2.4-1.8,3.5-.5,1.8,2.1-.8,1.2-1.2,2.6-.8,2.9s.3.7-.1.7S101.5,30.65,101.1,29.45Z" style="fill:#c4a161"/><path d="M110,29c.1-.4,1.8-1.9,3.8-3.2,3.6-2.3,3.6-2.3,1.7-.1-2.2,2.5-5.5,4.5-5.5,3.3Z" style="fill:#c4a161"/><path d="M105.5,22.65c.7-1.1,7.6-4.3,8.1-3.7.3.2-.6,1.1-1.8,1.9-2.7,1.7-7,3-6.3,1.8Z" style="fill:#c4a161"/><path d="M125,17.75c0-.3.9-1.2,2-1.9s1.8-1.7,1.5-2.2.4-1,1.7-1c1.8,0,2-.2.8-1-.9-.6-1-1-.3-1a2.53,2.53,0,0,1,1.8,1c.4.7,1.4.7,2.8,0s.6.3-1.6,2.3c-3.4,3.1-8.7,5.4-8.7,3.8Z" style="fill:#c4a161"/><path d="M138.7,12.65c1.4-2.1,3.9-4.4,5.4-4.9s2.9-.8,2.9-.5-1.4,1-3.1,1.6-2.8,1.6-2.5,2.3-.8,2.2-2.4,3.3l-2.8,2.1,2.5-3.9Z" style="fill:#c4a161"/><path d="M148,6.25a38,38,0,0,1,5.6-3.6c6-3.4,8.6-3.6,3.2-.2-3.5,2.2-8.8,4.4-8.8,3.8Z" style="fill:#c4a161"/><path d="M167,5.15c3.3-1.9,5-1.8,2.6,0a7.84,7.84,0,0,1-3.5,1.5Q164.6,6.5,167,5.15Z" style="fill:#c4a161"/></g></g></svg>